<svg class="icon" style="width: 1.0009765625em;height: 1em;vertical-align: middle;fill: currentColor;overflow: hidden;" viewBox="0 0 1025 1024" version="1.1" xmlns="http://www.w3.org/2000/svg" p-id="40009"><path d="M918.224712 150.783346l3.376026 2.253281c11.787001 0 25.093007 1.736581 38.224115-0.03885 8.341016-1.12664 26.52265-5.586578 36.044564-5.586578 17.311423 0 15.213523 12.591169 20.252328 14.626884l0 6.752082c0 9.692987 7.878719 20.034768 7.878719 32.633741l0 9.00147c0 13.706147-13.2788 28.946876-21.378966 34.883129-12.276504 8.993697-20.737945 13.799396-34.20722 22.054967-14.145154 8.671258-21.013774 12.035624-31.27008 24.995872-3.916055 4.949444-7.540734 11.522801-10.547682 17.583366-0.672099 1.359738-6.122721 21.961718-6.122721 22.012214l-0.431231 9.059739 6.060535 53.954347 0 9.00147c0 30.757227-10.827398 56.743916-24.304355 74.723536-5.124281 6.83364-19.382087 18.445834-27.95621 21.55769-7.909782 2.867105-9.009243 4.156905-18.597322 6.15767-9.137441 1.903633-6.709329 7.754377-11.289725 14.591935 0 26.048693 0.170939 39.820974-9.658038 56.732074-9.281186 15.967226-17.089976 25.162936-31.530302 35.986569-8.473101 6.348024-28.340835 23.383618-35.601853 30.784555-5.528309 5.633187-30.850445 27.478367-36.860453 30.660061-0.135974 6.083854-3.605246 9.4832-4.424991 16.954005-0.571089 5.198097-1.076136 15.838997-1.243188 20.13579-0.574976 14.661864 3.527544 32.198621-5.427287 38.321281l-1.282039 12.358063 0 15.753552c0 21.009888 3.787857 28.636097 13.776076 40.236661 4.856195 5.640961 7.746634 8.78391 12.944701 14.059679 6.919116 7.024025 10.275739 5.233046 17.163792 9.844505 16.091537 0 28.476806-1.367508 38.09203 5.792478 5.163117 3.842239 15.920586 19.988159 15.920586 27.96787l0 7.874833c0 5.749756-4.184111 7.653386-7.878719 9.860051l-120.403001 1.394703c-29.374223 0.40792-2.556308-32.633741-51.763258-32.633741-0.520584-1.961908-13.135085-17.983507-15.963339-22.295816-5.714776-8.725641-8.585783-15.671963-13.286573-24.972552-5.225273-10.345668-18.010713-44.152747-18.010713-58.507475-1.359738-2.031837-2.249394-1.977449-2.249394-4.502663l0-7.874833c0-19.521945 0.773109-19.409294 12.606716-26.779077 7.610663-4.739657 17.26867-10.982802 23.69051-16.818003 16.534431-15.019282 25.267814-22.971817 36.864401-43.029874 11.717072-20.279535 15.827337-31.895585 17.975734-61.918602 1.464632-20.458229 18.675024-40.500831 39.393444-40.500831l0-2.249394 32.633741 0c1.643341 0 13.53134-10.738035 15.493239-12.637809 9.090832-8.811116 10.594291-3.240054 19.199507-8.931541 10.349554-6.8453 18.193294-21.149746 18.193294-38.072597 0-0.058275-14.444303-17.237608-16.204189-19.801661-5.613784-8.177868-9.203484-15.532105-14.176247-22.95627 0-23.228213-11.309127-28.853658-22.206454-41.93433-7.463032-8.954861-29.556834-22.396838-29.556834-34.587988l0-1.122754c0-19.41318 10.128108-28.270906 10.128108-42.761758 0-1.841474-0.675986-3.376026-2.253281-3.376026-0.466195 0-16.037155 7.093954-19.786145 8.344903-7.688335 2.567962-10.835171 7.13279-15.943906 12.191029-10.477753 10.380617-13.236077 23.620581-26.118622 31.266133-4.914494 2.91761-13.605155 5.637074-19.859961 8.271087-5.011599 2.113423-13.181695 7.323174-17.76206 10.368988-11.670432 7.766037-21.375079 16.709238-30.803988 26.588723-9.005357 9.436591-16.596587 23.453547-24.692836 31.569168-6.720989 6.732649-24.681176 17.758173-33.612687 23.775985-11.464532 7.727201-21.460555 18.877038-31.744067 25.644666-6.884167 4.537643-30.023018 17.777607-39.611157 17.777607l-3.376026 0c-1.608376 3.982097-12.676645 4.502663-18.138912 4.339516l-3.240054 2.412563c-18.98972 0-40.108524 4.984423-59.599376 5.668167-23.616694 0.827497-34.820883 7.144449-52.252731 14.137381-16.227508 6.511202-27.334622 15.535992-39.85984 25.407672-15.069778 11.872446-19.323818 21.507164-30.873826 35.516225-33.131109 40.178362-68.352193 122.516357-68.352193 196.085746l0 57.392498 23.632241 0c6.254805 0 31.685767-5.011599 37.167437-6.717102 4.424991-1.379162 11.841383-4.910608 15.87009-6.635513 4.417218-1.895863 14.976559-1.437437 16.728671-5.780819 7.37367 0 36.145678-9.187937 40.221176-12.661098 9.26564-7.898122 16.336273-20.046428 20.39996-32.490118 5.804138-17.76206 29.533514-52.699693 42.377345-63.398863 9.463767-7.886493 18.189407-17.633862 30.772712-22.117122 14.378261-5.124281 21.037094-11.853043 28.057232-24.828807 13.418688-24.805518 26.363389-42.55194 64.35048-42.55194l1.12664 0c21.950058 0 45.011146 5.065982 45.011146 25.881659 7.882606 4.172451 18.00294 10.64093 18.00294 22.505603l0 2.253281c0 12.738801-10.252419 34.883129-21.378966 34.883129l-4.502663 0c-0.489506-2.051261-1.293693-3.383799-1.375279-4.541529l1.375279-10.089272-6.752082 0c-1.507366 3.733444-10.18249 7.466918-13.523566 17.983507-2.7389 8.624619-2.428103 17.641635-4.926124 26.580949-7.066747 25.283361-6.534521 24.13729-20.722398 42.291718-7.618406 9.747369-23.088355 21.782993-33.503982 29.514081-6.561698 4.863968-35.349222 21.382852-35.349222 28.791471l0 3.376026 4.502663 0 0 2.249394c16.685918 0 49.509922-2.163925 49.509922 13.504133 0 2.575732-0.380726 1.309233-1.12664 4.498777l-87.76926 0c-3.659628 0-0.850808-0.975126-5.625444-2.249394l0-9.00147-16.880189 0c-7.859286 0-13.636218 4.825132-22.536696 5.594351-6.923003 0.5944-21.491617 3.407119-25.850566 3.407119l-169.916871 0c-7.610663 0-19.619081-12.839823-21.841293-19.790032-4.343402-13.577949-4.03648-21.503277-5.155344-37.606505-1.320887-18.94308-11.328561-54.005055-30.391944-54.005055l-1.12664 0c-12.047284 0-23.628354 13.678971-23.628354 24.754992l0 5.625444 2.249394 0c0 42.431697 40.508422 43.150421 40.508422 60.768706l0 5.625444c0 18.70223-29.506308 12.31534-46.134018 12.377496-16.961748 0.066045-44.016715 1.309233-51.98097-8.78391-11.390716-14.432644-9.176277-27.00441-12.83205-47.9328-1.639454-9.389951-1.495713-18.037889-2.929263-27.455047-1.231534-8.131229-4.27736-17.587253-4.27736-27.229713l-2.249394 0 0-27.008297c0-2.684512 6.66272-24.261602 7.731088-27.152041 3.240054-8.729527 6.841414-16.013835 11.600503-23.282596 8.006917-12.229864 20.054201-31.184756 20.054201-50.838665l0-2.253281c0-7.202719-5.90516-31.611982-7.882606-39.377959-2.746671-10.788562-3.372139-31.301051-3.372139-45.015093l-0.450655-14.661864 2.703936-37.101546 2.249394 0 0-3.376026c0-12.839823 16.033268-48.363973 21.82186-56.945839 9.67744-14.358828 22.707617-32.454895 36.242843-42.528863 15.279565-11.367397 28.492353-23.162171 48.162051-30.605709 18.9664-7.175542 38.764296-16.204189 63.690056-16.204189l0.011655-2.020183 30.368867-1.355855 57.435312-0.60994 173.246317 11.860817 1.165489 0.664329 63.111312-3.877189 3.240054-2.412563c5.24082 0 15.310658-0.613824 16.880189-4.502663 13.271057 0 38.274823-13.072899 45.69495-19.568585 7.000705-6.126577 7.284307-9.984363 16.868529-15.765181 5.256366-3.166239 15.804048-10.050405 20.532044-12.09778 15.046488-6.507315 25.411559-17.606655 36.479685-28.787585 15.264018-15.415536 15.407763-23.19712 26.02926-40.360851 21.445008-34.657826 28.134934-45.885334 56.098978-74.432039 7.299854-7.447485 28.89638-22.711504 39.207008-26.060353 19.68901-6.39855 33.791532-6.853073 59.537129-6.853073l27.00441 0c17.412415 0 29.40143 22.501717 42.761758 22.501717z" p-id="40010"></path></svg>