<svg class="icon" style="width: 1.0234375em;height: 1em;vertical-align: middle;fill: currentColor;overflow: hidden;" viewBox="0 0 1048 1024" version="1.1" xmlns="http://www.w3.org/2000/svg" p-id="39819"><path d="M1048.465179 519.579931c0-78.52833-53.369279-145.945416-129.695185-163.97989l-0.31596 1.257643c-22.959725-56.302746-57.455069-106.837682-100.96765-147.9372-37.636354-37.428812-80.941393-69.408871-118.475524-93.731558a1783.551181 1783.551181 0 0 1 32.605783-5.45185C697.963857 48.71662 613.773037 50.184903 541.635144 65.177491c36.803088-32.50356 71.084695-59.657493 71.084695-59.657492-77.165367-36.068947-251.104176 116.48374-251.104177 116.48374s0.418182 0.31596 0.944781 0.734141c-46.867328 27.469892-92.997417 57.560389-115.542057 80.625434-0.526599 0.523502-0.734141 0.839461-1.257643 1.362962-44.664904 41.102615-80.105029 91.950414-103.693575 148.885079-81.467992 12.895485-142.067168 82.409675-142.067168 165.866353 0 85.135601 64.477424 156.430935 148.04252 166.702718 31.245918 68.35877 79.89439 127.285219 140.914845 170.168978 36.79999 97.820446 131.058147 167.650596 241.563438 167.650596 111.347849 0 206.234828-70.982473 242.405997-170.060561 60.391634-42.985982 108.411285-101.701791 139.235923-169.7477 78.320787-15.203228 136.302456-83.772638 136.302456-164.611808zM376.924211 330.856075c65.738165 0 122.880372 35.752987 153.59969 88.806306 30.719319-53.053319 87.966846-88.806307 153.59969-88.806306 60.078772 0 112.921452 29.988275 145.006831 75.594862-10.16956-1.362963-20.447537-2.515286-30.722417-3.249427-16.981275-1.152323-33.968745-1.886464-51.058437-2.725925-32.7142-1.468282-65.422205-0.734141-98.031086 3.354746-19.920938 2.518383-39.631235 6.080672-58.712711 12.266664-9.646058 3.144107-19.186796 6.814813-28.832855 9.856698-15.097908 4.823029-30.617096 6.920133-46.343826 3.983568-9.435418-1.784242-18.768615-4.510167-27.888073-7.443635-16.566191-5.346531-33.132382-10.587741-50.222075-13.734946-33.343022-6.185992-66.998905-9.017237-98.347045-8.701277-25.583428 0-48.543152 0.944781-71.400654 3.670706-12.582623 1.468282-25.059926 3.249427-37.534132 4.823029 31.973864-46.765106 85.758227-77.695064 146.8871-77.695063z m442.764597 169.224197c-0.628821 23.275684-4.50707 46.133187-12.790165 67.940589-3.354747 8.806597-7.967136 17.089692-14.781949 23.693866-7.654274 7.443634-17.195012 11.32498-27.26235 14.047807-12.684845 3.460066-25.68565 4.302625-38.791774 4.404848-19.81252 0.21064-39.209956-2.304646-58.50517-6.393534-19.183699-4.088888-34.390025-14.047808-46.551368-29.251036-15.51609-19.499658-25.478108-41.5177-31.1375-65.632845-2.623703-11.114341-4.717709-22.436223-4.510167-33.968745a89.676744 89.676744 0 0 1 1.573602-14.890367c2.202424-12.161344 9.74828-20.131577 20.971038-24.743966 11.321883-4.612389 23.170364-7.338315 35.124166-9.751378 13.316764-2.620605 26.735751-4.612389 40.157834-5.45185 10.587741-0.734141 21.17858-0.944781 28.309353-1.257643 28.309353 1.362963 53.050222 3.460066 77.165367 10.380199 4.404847 1.257643 8.704375 3.249427 12.793263 5.241211 3.983568 1.886464 7.025453 4.928349 9.014139 8.806597 2.202424 4.404847 4.404847 8.704375 6.083769 13.211444 1.991784 5.346531 2.409966 11.009021 2.620606 16.668413 0.309764 9.017237 0.731044 18.034473 0.517306 26.94639z m-346.204892 7.130773c-4.50707 19.292116-12.056024 37.428812-22.014944 54.521602-5.45185 9.330099-11.637842 18.136696-19.502756 25.58033-10.380199 9.962018-22.857502 15.729828-36.592448 19.397436-27.785851 7.236092-55.884564 9.122557-84.296139 4.826126-5.55717-0.839461-11.012118-2.307744-16.566191-3.670706-11.321883-2.936565-19.81252-9.441614-26.314472-19.189894-7.236092-10.693061-11.637842-22.541543-14.574406-34.913526-3.878248-16.253329-6.080672-32.7142-7.654275-49.385711-0.944781-9.646058-0.731044-19.186796 0.42128-28.832854 0.628821-4.823029 0.944781-9.751378 2.097104-14.469087 3.878248-16.776831 14.261545-27.469892 30.929958-31.874739 15.200131-3.986666 30.821541-6.396631 46.446048-7.654274 11.637842-0.944781 23.275684-1.468282 30.824639-1.886464 26.735751 0.31596 49.171974 1.991784 71.295334 7.127674 9.017237 2.097104 18.136696 3.878248 26.419791 8.283096a71.19621 71.19621 0 0 1 11.53562 7.654274c5.87313 4.823029 8.806597 11.427202 10.06424 18.870837 2.515286 15.525383 0.944781 30.620194-2.518383 45.61588z m-429.553153 12.368886c0-53.260861 33.550564-98.765227 81.362672-116.378421-9.646058 35.331708-15.413868 72.237018-15.413868 110.610611 0 43.091302 7.236092 84.401459 19.502756 123.509193-49.593253-16.668413-85.45156-63.325101-85.45156-117.741383z m682.444669 161.257062c11.32498 26.001609 17.616292 54.729144 17.616291 84.92496 0 21.705179-4.194208 42.146521-10.169559 61.859917-7.759594 25.372788-19.815618 48.648472-35.85521 69.096009-39.107734 49.906115-99.186506 82.617217-167.545275 82.617217-67.311767 0-126.656398-31.769419-165.764132-80.417891-16.566191-20.546661-29.148814-44.138305-37.221269-69.932373-6.291311-20.02316-10.590839-40.9911-10.590839-63.114461 0-30.195817 6.393534-58.818032 17.616291-84.924961-77.484424-19.081476-135.147035-88.911626-135.147035-172.473625 0-15.097908 2.409966-29.566996 5.975352-43.512581 3.776026 3.986666 6.501951 8.806597 8.283095 14.050906 1.678922 4.823029 2.725925 9.856698 4.194208 14.679726 0.839461 3.038787 1.991784 6.080672 2.725925 9.122557 3.249427 14.469087 6.288214 28.938174 9.646058 43.407261 3.144107 13.734946 7.338315 27.153932 13.840266 39.736556 7.338315 14.047808 17.823834 24.846189 32.711103 31.035278 9.017237 3.776026 18.350433 6.185992 27.993393 7.657371 17.19811 2.722828 34.495344 3.035689 51.900996 1.778047 17.616292-1.257643 34.913526-3.878248 51.795677-9.014139 12.582623-3.776026 24.428007-9.122557 34.495344-17.616292 15.413868-13.106124 27.785851-28.622215 37.22127-46.551368 9.540738-17.823834 16.148009-36.803088 22.123361-55.986787 1.678922-5.55717 3.354747-11.114341 5.349629-16.460871 2.933467-7.970234 8.704375-12.898582 17.195012-14.261545 2.725925-0.418182 5.55717-0.523502 8.283095-0.418181 6.393534 0.418182 12.477303 1.678922 16.776831 7.025452 1.883367 2.307744 3.562289 4.928349 4.714611 7.654274 2.307744 5.241211 4.510167 10.693061 6.291312 16.144912 7.548954 23.802283 17.507874 46.343826 30.090497 67.832171 10.485519 17.826931 24.217367 32.296018 42.46248 42.254938 12.895485 7.025453 26.735751 11.53562 41.102616 14.366865 21.59986 4.194208 43.512581 5.241211 65.422205 4.299527 13.316764-0.526599 26.422889-2.304646 39.107734-6.080671 13.106124-3.881346 24.638647-10.274879 33.234604-21.283901 5.55717-7.025453 9.751378-14.890366 13.106124-23.170364 7.130773-17.405652 11.743162-35.647667 15.93737-53.9981 1.994882-9.017237 4.088888-17.929154 6.291311-26.841071 1.152323-4.717709 2.620605-9.227876 3.878248-13.840265 1.257643-4.299527 2.202424-8.704375 5.033669-12.477303l0.31596-0.31596c3.147205 13.211444 5.135891 26.735751 5.135891 40.888878-0.111515 83.453581-57.882544 153.283731-135.57451 172.259888z m205.290047-48.44093c11.21966-37.636354 17.929154-77.270687 17.929153-118.683067 0-36.487128-5.241211-71.611294-14.047807-105.372497 41.5177 20.655079 68.987591 62.910017 68.987591 111.137209 0 49.800795-29.672315 93.105834-72.868937 112.918355zM547.300731 650.430536c0 11.637842 5.396093 21.07326 12.059122 21.07326 6.656833 0 12.056024-9.435418 12.056024-21.07326 0-11.64094-5.396093-21.076358-12.056024-21.076358-6.663029 0.003098-12.059121 9.438516-12.059122 21.076358zM491.729029 650.430536c0 11.637842 5.39919 21.07326 12.059121 21.07326s12.059121-9.435418 12.059122-21.07326c0-11.64094-5.39919-21.076358-12.059122-21.076358s-12.059121 9.438516-12.059121 21.076358zM324.605032 504.903302c-0.018586 25.30464 20.481611 45.832715 45.786251 45.848203 25.30464 0.018586 45.832715-20.478513 45.848203-45.786251v-0.061952c0-25.30464-20.512587-45.817227-45.817227-45.817227s-45.817227 20.512587-45.817227 45.817227zM631.804413 836.428467c-19.710298 22.857502-46.551368 39.002414-75.489543 47.390829-28.938174 8.385318-60.180994 9.119459-89.119168 0.418182-28.519992-8.806597-55.463285-27.888073-68.780049-57.978571 4.612389 32.816422 31.035278 61.438637 62.910017 74.02126 31.871641 13.524306 68.151228 13.840266 101.175192 4.61239 32.81952-9.856698 63.328199-29.669218 82.933177-58.189211 20.026257-27.680531 26.94639-66.054124 13.316764-96.249941 4.928349 32.711103-7.548954 63.222879-26.94639 85.975062zM637.782863 504.903302c0 25.30464 20.512587 45.817227 45.817227 45.817227s45.817227-20.512587 45.817227-45.817227-20.512587-45.817227-45.817227-45.817227-45.817227 20.512587-45.817227 45.817227z" p-id="39820"></path></svg>